<svg
              width="20"
              height="20"
              viewBox="0 0 20 20"
              fill="none"
              xmlns="http://www.w3.org/2000/svg"
              className="mr-1"
            >
              <path
                d="M9.99988 20C15.5227 20 19.9999 15.5228 19.9999 10C19.9999 4.47715 15.5227 0 9.99988 0C4.47703 0 -0.00012207 4.47715 -0.00012207 10C-0.00012207 15.5228 4.47703 20 9.99988 20Z"
                fill="#77B255"
              />
              <path
                d="M14.4443 10C14.4443 13.36 15.9954 15.6783 17.6677 16.4145C19.1221 14.6778 19.9999 12.4422 19.9999 10C19.9999 7.55779 19.1221 5.32224 17.6677 3.58557C15.9954 4.32168 14.4443 6.64002 14.4443 10Z"
                fill="#A6D388"
              />
              <path
                d="M14.9997 10C14.9997 6.64 15.9952 4.32167 17.6674 3.58556C17.4202 3.29056 17.153 3.01444 16.8741 2.75C15.2252 3.66944 13.8885 5.87667 13.8885 10C13.8885 14.1228 15.2252 16.3306 16.8741 17.25C17.153 16.9856 17.4208 16.7094 17.6674 16.4144C15.9952 15.6783 14.9997 13.36 14.9997 10Z"
                fill="white"
              />
              <path
                d="M5.55543 10C5.55543 6.64002 4.00432 4.32224 2.3321 3.58557C0.877656 5.32224 -0.00012207 7.55779 -0.00012207 10C-0.00012207 12.4422 0.877656 14.6778 2.3321 16.4145C4.00432 15.6778 5.55543 13.36 5.55543 10Z"
                fill="#A6D388"
              />
              <path
                d="M2.33215 3.58552C4.00438 4.32219 4.99993 6.63996 4.99993 9.99996C4.99993 13.36 4.00438 15.6777 2.33215 16.4144C2.57938 16.7094 2.8466 16.985 3.12549 17.25C4.77382 16.3305 6.11104 14.1227 6.11104 9.99996C6.11104 5.87719 4.77438 3.66941 3.12549 2.75052C2.8466 3.01496 2.57882 3.29052 2.33215 3.58552Z"
                fill="white"
              />
            </svg>